<svg id="Calque_1" data-name="Calque 1" xmlns="http://www.w3.org/2000/svg" viewBox="0 0 695.99 100.19"><title>logo-allohonda</title><path d="M97.29,99.08c.35.05.7.06,1,.1,0,0,47-.08,47.61-.32,3.38-1.27-.8-1.29-1.41-4.51-.51-2.64-21.4-8-24.07-8.79-.33-.1-.68-.15-1-.23l-1-.1-19.65-.55a8.14,8.14,0,0,0-2.08.21,8,8,0,0,0-1.94.73A7.25,7.25,0,0,0,91,93.19,7.68,7.68,0,0,0,97.29,99.08Z" style="fill:#ffca2c"/><path d="M106.82,24A43.19,43.19,0,0,1,123.43,7,46.48,46.48,0,0,1,147,.9q12.79,0,22.2,5.36a36.28,36.28,0,0,1,14,13.5V2.45h0A16.34,16.34,0,0,1,199.54,18.8V99l-16.34.21V79.64A37.64,37.64,0,0,1,168.9,93.4a43.66,43.66,0,0,1-22.11,5.45,45,45,0,0,1-23.45-6.23,44.12,44.12,0,0,1-16.52-17.48,53.28,53.28,0,0,1-6-25.61Q100.78,35,106.82,24Zm71.94,7a31,31,0,0,0-12-12.2,34.78,34.78,0,0,0-33.13-.09,30.49,30.49,0,0,0-11.9,12.11,37.75,37.75,0,0,0-4.44,18.69,38.61,38.61,0,0,0,4.44,19,31,31,0,0,0,11.9,12.29A32.83,32.83,0,0,0,150.16,85a33.31,33.31,0,0,0,16.61-4.24,30.78,30.78,0,0,0,12-12.29A38.27,38.27,0,0,0,183.2,49.7,37.78,37.78,0,0,0,178.76,31Z" style="fill:#03045e"/><path d="M271.69,95.68A32.35,32.35,0,0,1,259.12,83a38.28,38.28,0,0,1-4.57-19,37.55,37.55,0,0,1,4.7-18.91,32.44,32.44,0,0,1,12.82-12.69,39.3,39.3,0,0,1,36.3,0,32.46,32.46,0,0,1,12.82,12.69A37.56,37.56,0,0,1,325.88,64a36.77,36.77,0,0,1-4.82,18.91,33.39,33.39,0,0,1-13.14,12.76,37.85,37.85,0,0,1-18.34,4.51A35.8,35.8,0,0,1,271.69,95.68ZM300.05,85A20.31,20.31,0,0,0,308,77,25.7,25.7,0,0,0,311,64a26.24,26.24,0,0,0-2.92-12.88,19.72,19.72,0,0,0-7.74-7.93A21.18,21.18,0,0,0,290,40.54a20.81,20.81,0,0,0-10.34,2.67,19,19,0,0,0-7.55,7.93A27.2,27.2,0,0,0,269.28,64q0,11.3,5.77,17.45a19.08,19.08,0,0,0,14.53,6.15A21.54,21.54,0,0,0,300.05,85Z" style="fill:#ffca2c"/><path d="M222.32,9l.1,81.67c0,4.7-3.14,8.51-7,8.51h0c-3.87,0-7-3.81-7-8.5V9c0-5,3.12-9,7-9h0C219.21,0,222.32,4,222.32,9Z" style="fill:#ffca2c"/><path d="M245.29,8.41V91c0,4.65-3.19,8.41-7.13,8.41h0c-3.94,0-7.13-3.77-7.13-8.41V8.41C231,3.77,234.23,0,238.16,0h0C242.1,0,245.29,3.77,245.29,8.41Z" style="fill:#ffca2c"/><path d="M407.76,34.06v54.7a10.53,10.53,0,0,1-10.53,10.53h0a10.53,10.53,0,0,1-10.53-10.53V79.41a10.53,10.53,0,0,0-10.53-10.53h-4.62A10.53,10.53,0,0,0,361,79.41v9.35a10.53,10.53,0,0,1-10.53,10.53h0a10.53,10.53,0,0,1-10.53-10.53V34.06a10.53,10.53,0,0,1,10.53-10.53h0A10.53,10.53,0,0,1,361,34.06v7.42A10.53,10.53,0,0,0,371.54,52h4.62a10.53,10.53,0,0,0,10.53-10.53V34.06a10.53,10.53,0,0,1,10.53-10.53h0A10.53,10.53,0,0,1,407.76,34.06Z" style="fill:#03045e"/><path d="M431.67,94.66a27.71,27.71,0,0,1-11.23-10.75,32,32,0,0,1-4.08-16.44,31.44,31.44,0,0,1,4.14-16.33,28.08,28.08,0,0,1,11.28-10.75,36.65,36.65,0,0,1,32.35,0,28.1,28.1,0,0,1,11.28,10.75,31.46,31.46,0,0,1,4.14,16.33,31.75,31.75,0,0,1-4.14,16.39,27.9,27.9,0,0,1-11.34,10.8,36.78,36.78,0,0,1-32.4,0ZM452.1,79.18q6.06-2.93,6.06-11.71,0-6.12-3-9.35A9.46,9.46,0,0,0,448,54.9a9.3,9.3,0,0,0-7.2,3.22q-2.9,3.23-2.9,9.35t2.79,9.46a9.06,9.06,0,0,0,7,3.22A9.88,9.88,0,0,0,452.1,79.18Z" style="fill:#03045e"/><path d="M544.13,45.4q6.13,6.93,6.13,18.75V99.29H529.2V66.94q0-5.16-2.69-8.11a9.26,9.26,0,0,0-7.2-3,9.51,9.51,0,0,0-7.41,3q-2.69,3-2.69,8.11V99.29H488.14V60.07A21.06,21.06,0,0,1,509.21,39h0v8.6A20.77,20.77,0,0,1,516.73,41a22.69,22.69,0,0,1,10.85-2.53Q538,38.47,544.13,45.4Z" style="fill:#03045e"/><path d="M561.81,52.76A25.61,25.61,0,0,1,571.11,42a23.93,23.93,0,0,1,13.11-3.76,21.83,21.83,0,0,1,10.37,2.42,18.2,18.2,0,0,1,7.15,6.61V19.77h0a21.17,21.17,0,0,1,21.17,21.17V99.29H601.74V90.91a17.89,17.89,0,0,1-7,6.66A21.8,21.8,0,0,1,584.11,100a23.64,23.64,0,0,1-13.06-3.76,25.66,25.66,0,0,1-9.24-10.8,37.41,37.41,0,0,1-3.39-16.39A37.06,37.06,0,0,1,561.81,52.76ZM597,58.52a10.7,10.7,0,0,0-6.17-1.9A10.36,10.36,0,0,0,583,59.91q-3.12,3.28-3.12,9.19T583,78.28a10.18,10.18,0,0,0,7.6,3.38,10.83,10.83,0,0,0,6.25-1.82q5-3.35,5-10.75Q601.84,61.92,597,58.52Z" style="fill:#03045e"/><path d="M634.89,52.76A25.73,25.73,0,0,1,644.13,42a23.65,23.65,0,0,1,13.06-3.76,22.06,22.06,0,0,1,10.75,2.47,17.91,17.91,0,0,1,7,6.66V39h0A21.06,21.06,0,0,1,696,60.07V99.29H674.92V90.91a17.81,17.81,0,0,1-7,6.66A22.11,22.11,0,0,1,657.19,100a23.64,23.64,0,0,1-13.06-3.76,25.66,25.66,0,0,1-9.24-10.8,37.41,37.41,0,0,1-3.39-16.39A37.06,37.06,0,0,1,634.89,52.76Zm35.19,5.77a10.7,10.7,0,0,0-6.17-1.9,10.36,10.36,0,0,0-7.79,3.28Q653,63.19,653,69.09t3.12,9.19a10.18,10.18,0,0,0,7.6,3.38A10.83,10.83,0,0,0,670,79.84q5-3.35,5-10.75Q674.92,61.92,670.08,58.52Z" style="fill:#03045e"/><path d="M56.78,99.71c.34,0,.68,0,1,.07l19.09-.06c.34,0,.68,0,1-.07a7.57,7.57,0,0,0,2-.55,7.32,7.32,0,0,0-1-13.83c-.33-.09-.67-.13-1-.2l-1-.07-19.09.06a7.58,7.58,0,0,0-3.88,1.08,7.48,7.48,0,0,0-3.41,7.79A7.58,7.58,0,0,0,56.78,99.71Z" style="fill:#ffca2c"/><path d="M56.78,60.76c.34,0,.68,0,1,.07l19.09-.06c.34,0,.68,0,1-.07a7.57,7.57,0,0,0,2-.55,7.32,7.32,0,0,0-1-13.83c-.33-.09-.67-.13-1-.2l-1-.07-19.09.06a7.58,7.58,0,0,0-3.88,1.08A7.48,7.48,0,0,0,50.46,55,7.58,7.58,0,0,0,56.78,60.76Z" style="fill:#ffca2c"/><path d="M38.93,60.76c.34,0,.68,0,1,.07L59,60.77c.34,0,.68,0,1-.07a7.57,7.57,0,0,0,2-.55,7.32,7.32,0,0,0-1-13.83c-.33-.09-.67-.13-1-.2l-1-.07-19.09.06A7.58,7.58,0,0,0,36,47.2,7.48,7.48,0,0,0,32.61,55,7.58,7.58,0,0,0,38.93,60.76Z" style="fill:#ffca2c"/><path d="M56.78,25.06c.34,0,.68,0,1,.07l19.09-.06c.34,0,.68,0,1-.07a7.57,7.57,0,0,0,2-.55,7.47,7.47,0,0,0,4.32-8.26,7.53,7.53,0,0,0-5.32-5.57c-.33-.09-.67-.13-1-.2l-1-.07-19.09.06a7.58,7.58,0,0,0-3.88,1.08,7.48,7.48,0,0,0-3.41,7.79A7.58,7.58,0,0,0,56.78,25.06Z" style="fill:#ffca2c"/><path d="M6.47,25.06c.34,0,.68,0,1,.07l19.09-.06c.34,0,.68,0,1-.07a7.57,7.57,0,0,0,2-.55,7.47,7.47,0,0,0,4.32-8.26,7.53,7.53,0,0,0-5.32-5.57c-.33-.09-.67-.13-1-.2l-1-.07-19.09.06a7.58,7.58,0,0,0-3.88,1.08A7.48,7.48,0,0,0,.15,19.29,7.58,7.58,0,0,0,6.47,25.06Z" style="fill:#ffca2c"/></svg>