<svg xmlns="http://www.w3.org/2000/svg" data-name="Слой 1" viewBox="0 0 128 160" x="0px" y="0px">
   <path d="M85.48,101.15l-9.3-46.32a2.26,2.26,0,0,0-2.66-1.77L49.9,57.8a2.26,2.26,0,0,0-1.77,2.66l8.22,40.92h0l1.08,5.39a2.26,2.26,0,0,0,2.21,1.81,2.28,2.28,0,0,0,.45,0l23.62-4.74A2.26,2.26,0,0,0,85.48,101.15ZM50.29,59.76,73.91,55h0a.26.26,0,0,1,.26.21l8,40.05L58.12,100l-8-40A.26.26,0,0,1,50.29,59.76Zm33,42.08L59.7,106.59a.26.26,0,0,1-.19,0,.25.25,0,0,1-.11-.16l-.88-4.4,24.14-4.75.87,4.31A.26.26,0,0,1,83.32,101.85Z"/>
   <path d="M71.61,99.87a2.13,2.13,0,1,0,1.49,2.62h0a2.13,2.13,0,0,0-1.49-2.62Zm-.6,2.18a.13.13,0,0,1-.09-.16.15.15,0,0,1,.14-.09h0a.15.15,0,0,1,.09.16A.13.13,0,0,1,71,102.05Z"/>
   <path d="M60.73,60.2l.2,0,3.33-.67a1,1,0,0,0-.39-2l-3.33.67a1,1,0,0,0,.2,2Z"/>
   <path d="M58.77,83.39,60.38,81l2.4,1.61a1,1,0,1,0,1.11-1.66l-2.4-1.61,1.61-2.4a1,1,0,0,0-1.66-1.11l-1.61,2.4-2.4-1.61a1,1,0,1,0-1.11,1.66l2.4,1.61-1.61,2.4a1,1,0,0,0,1.66,1.11Z"/>
   <path d="M71.3,77.39l-1.61,2.4a1,1,0,0,0,1.66,1.11L73,78.5l2.4,1.61a1,1,0,1,0,1.11-1.66l-2.4-1.61,1.61-2.4A1,1,0,0,0,74,73.33l-1.61,2.4L70,74.12a1,1,0,1,0-1.11,1.66Z"/>
   <path d="M74.32,85.37,61.74,87.86a1,1,0,0,0,.19,2l.19,0L74.7,87.33a1,1,0,1,0-.39-2Z"/>
   <path d="M58.08,128a1,1,0,0,1-.92-1.39,6.33,6.33,0,0,0-1.75-7.3,6.25,6.25,0,0,0-1.88-1.08,1,1,0,0,1-.65-1.08,7.54,7.54,0,0,0-12.13-7,1,1,0,0,1-1.34-.09,6.45,6.45,0,0,0-.52-.49,6.29,6.29,0,0,0-5.84-1.2,1,1,0,0,1-1.12-.41,3.93,3.93,0,0,0-.76-.89,3.92,3.92,0,0,0-6,1,1,1,0,0,1-1.42.32,2.3,2.3,0,0,0-1.86-.32,1,1,0,0,1-.64,0l-.33-.14a1,1,0,0,1-.25-1.68l.1-.09a.79.79,0,0,0,0-1.05,1,1,0,0,1,.06-1.45,1.74,1.74,0,0,0,.2-.19,1.72,1.72,0,0,0-.21-2.42,1.7,1.7,0,0,0-.44-.25,1,1,0,0,1-.6-1,2.93,2.93,0,0,0-3.44-3.23,1,1,0,0,1-1.1-.62,3.48,3.48,0,0,0-2.5-2.2,1,1,0,0,1-.75-.8,2.93,2.93,0,0,0-1-1.77,3,3,0,0,0-3.38-.28,1,1,0,0,1-1.36-.35,1.17,1.17,0,0,0-1.84-.24,1,1,0,0,1-1.19.14.8.8,0,0,0-1,.17.79.79,0,0,0-.13.78,1.12,1.12,0,0,1,0,.14,1.43,1.43,0,0,1,0,.18,1,1,0,0,1-1.93.49,1.26,1.26,0,0,1-.06-.27,2.78,2.78,0,0,1,3.42-3.49,3.19,3.19,0,0,1,3.72.27l.1.08a4.91,4.91,0,0,1,6.42,3.18,5.41,5.41,0,0,1,3,2.53,4.93,4.93,0,0,1,5,4.8l.31.23a3.72,3.72,0,0,1,.65,5,2.79,2.79,0,0,1,.22,1.56,4.3,4.3,0,0,1,1.06.25l0,0a6,6,0,0,1,8.46-.75,5.37,5.37,0,0,1,.73.75,8.27,8.27,0,0,1,7,1.76l0,0a9.59,9.59,0,0,1,11.32.69,9.48,9.48,0,0,1,3.4,7.87,8.17,8.17,0,0,1,1.75,1.12,8.35,8.35,0,0,1,2.3,9.63A1,1,0,0,1,58.08,128Z"/>
   <path d="M89.2,128a1,1,0,0,1-.82-.43,5.24,5.24,0,0,1,4.29-8.23,6.13,6.13,0,0,1,.82.07,7.16,7.16,0,0,1,5.5-2.66A8.28,8.28,0,0,1,106.8,111a8.16,8.16,0,0,1,2.7.45,6.16,6.16,0,0,1,5.51-3.41,6.7,6.7,0,0,1,1.47.18,4.44,4.44,0,0,1,4.42-4.1h0a4.4,4.4,0,0,1,3.27,1.46,3.43,3.43,0,0,1,3.19-.52,1,1,0,1,1-.75,1.86c-.28-.11-.8-.15-2.06.85a1,1,0,0,1-1.51-.32,2.43,2.43,0,0,0-4.42,2,1,1,0,0,1-1.45,1.22,4.14,4.14,0,0,0-2.16-.62h0a4.19,4.19,0,0,0-4,3,1,1,0,0,1-1.4.61,6.17,6.17,0,0,0-2.78-.66h0a6.27,6.27,0,0,0-6.09,5,1,1,0,0,1-1.09.79c-.19,0-.39,0-.58,0a5.17,5.17,0,0,0-4.31,2.34,1,1,0,0,1-1.12.41,2.75,2.75,0,0,0-.94-.16A3.24,3.24,0,0,0,90,126.43,1,1,0,0,1,89.2,128Z"/>
   <path d="M89.83,17.3a51,51,0,0,0-5.72-1.63C82.9,6.83,74.2,0,64,0h-.1c-10.26,0-18.78,6.71-20,15.58C33.64,17.79,27.67,21.79,27.7,27c0,2.24,1.91,4.26,5.64,6,1.89,2.51,7.4,4,12.17,4.9l.18,0a1,1,0,0,0,.18-2c-7.69-1.41-11.2-3.48-11.21-4.81,0-2,2.67-4,7.34-5.4,5.36-1.64,13-2.53,22-2.57,19.13-.09,29.38,4.42,29.39,7.71,0,1.35-3.56,3.47-11.39,5a1,1,0,1,0,.37,2c4.88-.92,10.51-2.51,12.38-5.08l.08,0c3.65-1.78,5.5-3.8,5.49-6C100.29,23,96.57,19.7,89.83,17.3Zm-1.71,4.27a1.41,1.41,0,0,1,.93-.2,9,9,0,0,1,3.6.92c2.44,1.13,3.54,2.58,3.49,3-.27.3-2.09.4-4.53-.73S88.05,21.93,88.12,21.57Zm1.64-2.16c-1.6-.15-2.94.21-3.45,1.32-.25.54-.46,1.68,1,3.2l.2.19c-4.92-1.68-11.84-2.75-20-3l.44-.14c2-.79,2.33-1.92,2.33-2.53S70,16.76,67.92,16a8.8,8.8,0,0,0-.88-.27c8.53.2,16.32,1.42,22.12,3.48ZM63.54,17.28c2.9,0,4.53.85,4.72,1.22-.19.37-1.84,1.25-4.78,1.26h-.07c-3,0-4.61-.9-4.74-1.19.12-.35,1.78-1.27,4.79-1.29ZM63.89,2c9,0,16.69,5.69,18.12,13.23a93.59,93.59,0,0,0-17.57-1.56h-.5a104.16,104.16,0,0,0-18,1.49C47.4,7.63,54.89,2,63.89,2ZM35.33,24.79c-2.43,1.15-4.25,1.06-4.52.77-.05-.39,1-1.86,3.46-3s4.29-1.06,4.52-.78C38.87,22.15,37.79,23.64,35.33,24.79Zm-5.59,2.45a3.55,3.55,0,0,0,2,.5h.32a10,10,0,0,0,2.52-.51,5.49,5.49,0,0,0-1.87,3.15C31,29.34,29.92,28.26,29.74,27.25Zm11.68-3.47c-.77.24-1.46.48-2.11.73,1.2-1.15,1.83-2.44,1.3-3.58-.25-.54-1-1.43-3.07-1.32l-.32,0c4.95-2,12.4-3.53,22.59-3.88-.28.08-.56.16-.81.26-2,.79-2.33,1.92-2.33,2.53,0,1.29,1.19,2.16,2.83,2.67A73.72,73.72,0,0,0,41.42,23.77Zm53.87,6.33a5.27,5.27,0,0,0-1.84-2.85,8.85,8.85,0,0,0,1.45.21h.27c1.87,0,2.55-.84,2.79-1.36a2,2,0,0,0,.16-.54,3.45,3.45,0,0,1,.19,1.07C98.31,27.74,97.24,28.95,95.29,30.11Z"/>
   <path d="M74.19,34.69A38.86,38.86,0,0,1,64,35.89a37.94,37.94,0,0,1-10.48-1.21,1,1,0,1,0-.6,1.91,38.92,38.92,0,0,0,10.83,1.3h.26a40.86,40.86,0,0,0,10.71-1.28,1,1,0,1,0-.57-1.92Z"/>
   <path d="M78.59,33.21c-.2-1.31-1.73-2.31-4.72-3a43.34,43.34,0,0,0-9.86-1c-5.2,0-13.84.91-14.51,4L32.88,102.69a1,1,0,0,0,.74,1.21l.23,0a1,1,0,0,0,1-.77l16.63-69.5s0,0,0,0c.45-.84,5-2.36,12.57-2.39h.25c7.33,0,11.8,1.42,12.31,2.21l19.78,81a1,1,0,0,0,1,.76l.24,0a1,1,0,0,0,.73-1.21Z"/>
   <path d="M103.83,92.49a2.61,2.61,0,1,1,2.61-2.61A2.62,2.62,0,0,1,103.83,92.49Zm0-3.23a.61.61,0,1,0,.61.61A.61.61,0,0,0,103.83,89.26Z"/>
   <path d="M16.05,50.51a2.61,2.61,0,1,1,2.61-2.61A2.62,2.62,0,0,1,16.05,50.51Zm0-3.23a.61.61,0,1,0,.61.61A.61.61,0,0,0,16.05,47.29Z"/>
   <path d="M122.2,41.62a1,1,0,0,1-1-.87c-.22-1.62-.55-3.56-.75-4.27a30.79,30.79,0,0,0-3.24-.72,1,1,0,0,1,0-2,30.77,30.77,0,0,0,3.24-.72c.2-.7.53-2.64.75-4.27a1,1,0,0,1,2,0c.22,1.63.55,3.56.75,4.27a30.92,30.92,0,0,0,3.24.72,1,1,0,0,1,0,2,30.79,30.79,0,0,0-3.24.72c-.2.7-.53,2.64-.75,4.27A1,1,0,0,1,122.2,41.62Zm-.64-6.83a1.22,1.22,0,0,1,.38.26,1.11,1.11,0,0,1,.26.39,1.1,1.1,0,0,1,.26-.39,1.22,1.22,0,0,1,.38-.26,1.22,1.22,0,0,1-.38-.26,1.1,1.1,0,0,1-.26-.39,1.1,1.1,0,0,1-.26.39A1.22,1.22,0,0,1,121.56,34.78Zm2.45-1.5h0Z"/>
   <path d="M8.09,17.46h0a1,1,0,0,1-1-.84A43,43,0,0,0,5.91,11,35.15,35.15,0,0,0,.81,9.71a1,1,0,0,1,0-2,35,35,0,0,0,5.1-1.28A42.76,42.76,0,0,0,7.1.84a1,1,0,0,1,2,0,42.7,42.7,0,0,0,1.19,5.63,35,35,0,0,0,5.1,1.28,1,1,0,0,1,0,2A35.16,35.16,0,0,0,10.27,11a43,43,0,0,0-1.19,5.63A1,1,0,0,1,8.09,17.46ZM5.46,8.73c1.56.46,1.83.75,1.94.88s.33.36.69,1.7c.36-1.34.59-1.59.69-1.7s.39-.42,1.94-.88C9.17,8.27,8.9,8,8.78,7.85s-.33-.36-.69-1.7c-.36,1.34-.59,1.59-.69,1.7S7,8.27,5.46,8.73ZM10.17,11Zm.15-4.46h0ZM6,6.42Z"/>
   <path d="M98.83,12.49a2.61,2.61,0,1,1,2.61-2.61A2.62,2.62,0,0,1,98.83,12.49Zm0-3.23a.61.61,0,1,0,.61.61A.61.61,0,0,0,98.83,9.26Z"/>
</svg>